<?xml version="1.0" encoding="utf-8"?>
<!-- Generator: Adobe Illustrator 18.1.1, SVG Export Plug-In . SVG Version: 6.00 Build 0)  -->
<svg version="1.1"
	 id="svg2" xmlns:dc="http://purl.org/dc/elements/1.1/" xmlns:cc="http://web.resource.org/cc/" xmlns:rdf="http://www.w3.org/1999/02/22-rdf-syntax-ns#" xmlns:svg="http://www.w3.org/2000/svg" xmlns:sodipodi="http://sodipodi.sourceforge.net/DTD/sodipodi-0.dtd" xmlns:inkscape="http://www.inkscape.org/namespaces/inkscape" sodipodi:docname="Wikipedia-W-visual-balanced.svg" sodipodi:docbase="/home/neil" inkscape:version="0.44.1" sodipodi:version="0.32"
	 xmlns="http://www.w3.org/2000/svg" xmlns:xlink="http://www.w3.org/1999/xlink" x="0px" y="0px" viewBox="974 -594 2560 1980"
	 enable-background="new 974 -594 2560 1980" xml:space="preserve">
<sodipodi:namedview  inkscape:cy="966.00779" inkscape:cx="1290.2046" inkscape:zoom="0.43976328" pagecolor="#ffffff" bordercolor="#666666" borderopacity="1.0" gridtolerance="10.0" guidetolerance="10.0" objecttolerance="10.0" id="base" inkscape:current-layer="svg2" inkscape:window-y="0" inkscape:window-x="0" inkscape:window-width="1694" inkscape:pageopacity="0.0" inkscape:pageshadow="2" inkscape:window-height="1123">
	</sodipodi:namedview>
<path id="path1873" sodipodi:nodetypes="cccccccccccccccccccccccccccccccccccc" fill="#1300BD" d="M2546.2,1033l-266-626.5
	c-105.4,206.8-222.2,421.7-322.1,626.2c-0.6,1.1-48.3,0.4-48.3-0.2C1757,676.1,1598.7,322.1,1445.3-34.1
	c-35.6-87.1-160.2-227.1-245.5-226.3c0-10.1-0.5-32.7-0.6-46.3l525.7-0.2l-0.4,45.7c-61.7,2.9-168.4,42.3-140.8,110.4
	c74.1,160,336.5,779.8,407.4,937.2c49.5-96.8,187.7-355,244.5-464.2c-44.6-91.5-192-433.2-236.2-519.3c-33.3-56.1-117-63-181.4-63.9
	c0-14.4,0.8-25.4,0.5-45.1l462.2,1.4v42c-62.6,1.7-121.8,25-95,84.8C2248-48.8,2284.2,43,2341.4,162.4
	c18.3-35,111.6-226.6,156.2-327.8c26.9-67.2-13.3-92.4-125.9-95.5c1.5-11.1,0.5-33.3,1.5-43.9c143.7-0.5,360.7-1,399.2-1.6l0.2,43.7
	c-73.4,2.8-149.2,41.9-188.9,102.6l-192.2,398.6c21.1,52.8,205.9,463.3,225.4,508.8l397.4-917.2c-28.3-74.3-118.5-90.9-153.7-91.7
	c0.3-11.8,0.3-29.9,0.4-44.9l414.8,3.2l0.6,2.1l-0.7,39.4c-91,2.7-147.3,51.4-180.9,131.2c-82.7,186.7-335.4,778.2-504.1,1163.7
	C2590.3,1033.4,2546.3,1033.1,2546.2,1033z"/>
<rect x="1199.2" y="1117.4" fill="#1300BD" width="2077.1" height="47.1"/>
</svg>
